<?xml version="1.0" encoding="utf-8"?>
<!-- Generator: Adobe Illustrator 24.3.0, SVG Export Plug-In . SVG Version: 6.00 Build 0)  -->
<svg version="1.1" id="Layer_1" xmlns="http://www.w3.org/2000/svg" xmlns:xlink="http://www.w3.org/1999/xlink" x="0px" y="0px"
	 viewBox="0 0 105 142.5" style="enable-background:new 0 0 105 142.5;" xml:space="preserve">
<style type="text/css">
	.st0{fill:url(#XMLID_2_);}
	.st1{fill:url(#SVGID_1_);}
	.st2{fill:none;}
</style>
<g>
	<g>
		<linearGradient id="XMLID_2_" gradientUnits="userSpaceOnUse" x1="6.8018" y1="7.6716" x2="82.2318" y2="83.1016">
			<stop  offset="8.683641e-03" style="stop-color:#FCF84A"/>
			<stop  offset="0.2894" style="stop-color:#FCCE3A"/>
			<stop  offset="0.6986" style="stop-color:#FC9625"/>
			<stop  offset="0.8964" style="stop-color:#FC801D"/>
		</linearGradient>
		<polygon id="XMLID_52_" class="st0" points="81.9,82.7 51.9,51.4 21.9,82.7 21.9,22.8 81.9,22.8 		"/>
		<linearGradient id="SVGID_1_" gradientUnits="userSpaceOnUse" x1="21.4163" y1="37.2857" x2="74.9019" y2="90.7713">
			<stop  offset="0.2037" style="stop-color:#FF318C"/>
			<stop  offset="0.4008" style="stop-color:#FF3389"/>
			<stop  offset="0.522" style="stop-color:#FF3981"/>
			<stop  offset="0.6226" style="stop-color:#FE4372"/>
			<stop  offset="0.712" style="stop-color:#FE525E"/>
			<stop  offset="0.794" style="stop-color:#FD6543"/>
			<stop  offset="0.8694" style="stop-color:#FC7B23"/>
			<stop  offset="0.8824" style="stop-color:#FC801D"/>
		</linearGradient>
		<polygon class="st1" points="81.9,53.3 51.9,22.8 21.9,53.3 21.9,82.7 51.9,53.1 81.9,82.7 		"/>
	</g>
	<path class="st2" d="M-0.5,0.2h105v142.5h-105V0.2z"/>
	<g>
		<path d="M28.2,105h3l6.4,15h-3.4l-1.4-3.3h-6.3l-1.4,3.3h-3.3L28.2,105z M31.6,113.7l-2-4.8l-2,4.8H31.6z"/>
		<path d="M38.7,108.6h3.2v2.3c0.7-1.6,1.7-2.6,3.6-2.5v3.4h-0.2c-2.1,0-3.5,1.3-3.5,4v4.2h-3.2V108.6z"/>
		<path d="M46.1,114.3L46.1,114.3c0-3.3,2.3-6,5.6-6c3.8,0,5.5,3,5.5,6.2c0,0.3,0,0.6,0,0.9h-7.9c0.3,1.5,1.3,2.2,2.8,2.2
			c1.1,0,1.9-0.3,2.8-1.2l1.8,1.6c-1.1,1.3-2.6,2.1-4.7,2.1C48.7,120.2,46.1,117.8,46.1,114.3z M54.2,113.4c-0.2-1.4-1-2.4-2.4-2.4
			c-1.3,0-2.2,1-2.5,2.4H54.2z"/>
		<path d="M58.6,108.6h3.2v1.6c0.7-1,1.7-1.8,3.3-1.8c2.4,0,3.9,1.6,3.9,4.2v7.4h-3.2v-6.4c0-1.5-0.7-2.3-2-2.3c-1.2,0-2,0.8-2,2.3
			v6.4h-3.2V108.6z"/>
		<path d="M70.2,114.3L70.2,114.3c0-3.8,2.5-5.9,5.2-5.9c1.7,0,2.8,0.8,3.6,1.7v-5.6h3.2V120H79v-1.6c-0.8,1.1-1.9,1.8-3.6,1.8
			C72.8,120.2,70.2,118.1,70.2,114.3z M79,114.3L79,114.3c0-1.9-1.3-3.2-2.8-3.2s-2.8,1.2-2.8,3.1v0c0,1.9,1.3,3.1,2.8,3.1
			S79,116.2,79,114.3z"/>
	</g>
</g>
</svg>
