<?xml version="1.0" encoding="utf-8"?>
<!-- Generator: Adobe Illustrator 24.3.0, SVG Export Plug-In . SVG Version: 6.00 Build 0)  -->
<svg version="1.1" id="Layer_1" xmlns="http://www.w3.org/2000/svg" xmlns:xlink="http://www.w3.org/1999/xlink" x="0px" y="0px"
	 viewBox="0 0 365.6 150" style="enable-background:new 0 0 365.6 150;" xml:space="preserve"
	 width="365.6" height="150">
<style type="text/css">
	.st0{fill:url(#XMLID_2_);}
	.st1{fill:url(#SVGID_1_);}
	.st2{fill:none;}
</style>
<g>
	<g>
		<g>
			<path d="M125,22h12.2L163,82.6h-13.8l-5.5-13.5h-25.5l-5.5,13.5H99.2L125,22z M138.9,57.5l-8-19.5l-8,19.5H138.9z"/>
			<path d="M167.5,36.6h13.1v9.3c2.7-6.4,7-10.5,14.7-10.1v13.7h-0.7c-8.7,0-14,5.2-14,16.3v17h-13.1V36.6z"/>
			<path d="M197.7,59.9v-0.2c0-13.2,9.4-24,22.8-24c15.4,0,22.4,12,22.4,25c0,1-0.1,2.2-0.2,3.4h-32.1c1.3,5.9,5.4,9,11.3,9
				c4.4,0,7.6-1.4,11.2-4.7l7.5,6.6c-4.3,5.3-10.5,8.6-18.8,8.6C207.9,83.7,197.7,74,197.7,59.9z M230.2,56
				c-0.8-5.8-4.2-9.8-9.7-9.8c-5.4,0-8.9,3.9-10,9.8H230.2z"/>
			<path d="M248.2,36.6h13.1v6.5c3-3.9,6.9-7.4,13.5-7.4c9.9,0,15.7,6.5,15.7,17.1v29.8h-13.1V56.9c0-6.2-2.9-9.4-7.9-9.4
				c-5,0-8.2,3.2-8.2,9.4v25.7h-13.1V36.6z"/>
			<path d="M295.3,59.7v-0.2c0-15.4,10.1-23.8,21-23.8c7,0,11.3,3.2,14.4,6.9V19.9h13.1v62.8h-13.1V76c-3.2,4.3-7.6,7.5-14.4,7.5
				C305.5,83.5,295.3,75.1,295.3,59.7z M330.8,59.7v-0.2c0-7.7-5.1-12.7-11.2-12.7s-11.3,5-11.3,12.7v0.2c0,7.7,5.2,12.7,11.3,12.7
				S330.8,67.3,330.8,59.7z"/>
		</g>
		<g>
			<linearGradient id="XMLID_2_" gradientUnits="userSpaceOnUse" x1="7.4219" y1="7.9116" x2="82.8519" y2="83.3416">
				<stop  offset="8.683641e-03" style="stop-color:#FCF84A"/>
				<stop  offset="0.2894" style="stop-color:#FCCE3A"/>
				<stop  offset="0.6986" style="stop-color:#FC9625"/>
				<stop  offset="0.8964" style="stop-color:#FC801D"/>
			</linearGradient>
			<polygon id="XMLID_51_" class="st0" points="82.5,83 52.5,51.7 22.5,83 22.5,23 82.5,23 			"/>
			<linearGradient id="SVGID_1_" gradientUnits="userSpaceOnUse" x1="22.0363" y1="37.5257" x2="75.5219" y2="91.0113">
				<stop  offset="0.2037" style="stop-color:#FF318C"/>
				<stop  offset="0.4008" style="stop-color:#FF3389"/>
				<stop  offset="0.522" style="stop-color:#FF3981"/>
				<stop  offset="0.6226" style="stop-color:#FE4372"/>
				<stop  offset="0.712" style="stop-color:#FE525E"/>
				<stop  offset="0.794" style="stop-color:#FD6543"/>
				<stop  offset="0.8694" style="stop-color:#FC7B23"/>
				<stop  offset="0.8824" style="stop-color:#FC801D"/>
			</linearGradient>
			<polygon class="st1" points="82.5,53.5 52.5,23 22.5,53.5 22.5,83 52.5,53.4 82.5,83 			"/>
		</g>
	</g>
	<path class="st2" d="M0,0.5h365.6v150H0V0.5z"/>
	<g>
		<path d="M106.5,124.9v3.1h-2.4v-22.6h2.4v9.8c1.3-2.2,3.6-3.5,6.1-3.6c3.8,0,7.7,3,7.7,8.3v0.1c0,5.2-3.8,8.3-7.7,8.3
			C110.1,128.3,107.8,127,106.5,124.9z M117.8,120L117.8,120c0-3.8-2.6-6.3-5.7-6.3c-3.3,0.1-5.9,2.9-5.8,6.2v0.1
			c-0.1,3.3,2.5,6.1,5.8,6.2c0,0,0,0,0,0C115.3,126.2,117.8,123.9,117.8,120z"/>
		<path d="M135.5,111.9h2.5l-6.7,16.6c-1.4,3.3-2.9,4.5-5.3,4.5c-1.2,0-2.4-0.3-3.4-0.8l0.8-1.9c0.8,0.4,1.6,0.6,2.5,0.6
			c1.4,0,2.3-0.7,3.3-3l-7.3-16h2.6l5.8,13.4L135.5,111.9z"/>
		<path d="M149.4,124.4l1.8-1.5c1.3,2,2.7,3.1,5,3.1c2.4,0,4.2-1.8,4.2-5.2v-14.5h2.5v14.5c0.1,2.1-0.6,4.2-2,5.7
			c-1.3,1.2-3,1.9-4.8,1.8C153.3,128.3,150.7,126.9,149.4,124.4z"/>
		<path d="M167.3,120L167.3,120c0-4.7,3.2-8.4,7.7-8.4c4.7,0,7.5,3.8,7.5,8.5c0,0.3,0,0.5,0,0.8h-12.7c0.1,3,2.6,5.5,5.6,5.4
			c1.9,0,3.7-0.8,5-2.3l1.5,1.3c-1.6,2-4.1,3.1-6.6,3c-4.4,0-8-3.6-8-8C167.3,120.2,167.3,120.1,167.3,120z M180,119.1
			c-0.2-2.9-1.9-5.5-5.1-5.5c-2.8,0-4.9,2.3-5.2,5.5H180z"/>
		<path d="M186.9,123.7V114h-2.2v-2.1h2.2v-4.8h2.4v4.8h5.1v2.1h-5.1v9.4c0,2,1.1,2.7,2.7,2.7c0.8,0,1.6-0.2,2.3-0.6v2
			c-0.9,0.5-1.9,0.7-2.9,0.7C188.8,128.2,186.9,127,186.9,123.7z"/>
		<path d="M198.3,106.2h9.2c2.1-0.1,4.1,0.6,5.7,1.9c0.9,0.9,1.4,2.2,1.4,3.5v0.1c0,2.2-1.3,4.2-3.4,5c2.6,0.8,4.6,2.3,4.6,5.2v0.1
			c0,3.7-3.1,5.9-7.9,5.9h-9.6L198.3,106.2z M212.1,112c0-2.1-1.7-3.5-4.8-3.5h-6.6v7.5h6.4C210,115.9,212.1,114.6,212.1,112
			L212.1,112z M207.5,118.1h-6.9v7.7h7.3c3.3,0,5.3-1.4,5.3-3.9v-0.1C213.3,119.5,211.3,118.1,207.5,118.1z"/>
		<path d="M220.3,111.9h2.4v4.2c1-2.7,3.6-4.5,6.5-4.5v2.6H229c-3.5,0-6.4,2.5-6.4,7.3v6.4h-2.4L220.3,111.9z"/>
		<path d="M231.1,123.3L231.1,123.3c0-3.4,2.8-5.2,6.9-5.2c1.7,0,3.3,0.2,4.9,0.7v-0.6c0-2.9-1.8-4.4-4.8-4.4
			c-1.7,0-3.3,0.4-4.9,1.2l-0.7-2c1.8-0.9,3.8-1.3,5.8-1.3c1.9-0.1,3.8,0.5,5.2,1.8c1.2,1.3,1.8,3,1.6,4.7v9.8h-2.3v-2.4
			c-1.4,1.8-3.5,2.8-5.8,2.8C234.1,128.3,231.1,126.6,231.1,123.3z M243,122.1v-1.6c-1.5-0.4-3.1-0.7-4.7-0.7c-3,0-4.7,1.3-4.7,3.3
			v0.1c0,2,1.9,3.2,4,3.2C240.5,126.4,243,124.6,243,122.1L243,122.1z"/>
		<path d="M250,105.8h2.7v2.6H250V105.8z M250.2,111.9h2.4v16h-2.3L250.2,111.9z"/>
		<path d="M257.7,111.9h2.4v2.8c1.1-2,3.2-3.2,5.5-3.1c3.9,0,6.1,2.6,6.1,6.4v10h-2.4v-9.4c0-3-1.6-4.8-4.4-4.8
			c-2.6-0.1-4.8,2-4.8,4.6c0,0.1,0,0.3,0,0.4v9.2h-2.4V111.9z"/>
		<path d="M275.2,125.9l1.2-1.7c1.6,1.3,3.5,2,5.5,2.1c1.9,0,3.3-1,3.3-2.5v-0.1c0-1.6-1.9-2.2-4-2.8c-2.5-0.7-5.3-1.6-5.3-4.5v-0.1
			c0-2.8,2.3-4.6,5.5-4.6c2,0,4,0.6,5.8,1.8l-1.1,1.8c-1.4-0.9-3-1.5-4.7-1.6c-1.9,0-3.1,1-3.1,2.3v0.1c0,1.5,2,2.1,4.1,2.8
			c2.5,0.7,5.1,1.7,5.1,4.6v0.1c0,3-2.5,4.8-5.7,4.8C279.4,128.3,277.1,127.4,275.2,125.9L275.2,125.9z"/>
	</g>
</g>
</svg>
